 <svg version="1.0" xmlns="http://www.w3.org/2000/svg"  width="298.000000pt" height="200.000000pt" viewBox="0 0 298.000000 200.000000"  preserveAspectRatio="xMidYMid meet">  <g transform="translate(0.000000,200.000000) scale(0.100000,-0.100000)" fill="#000000" stroke="none"> <path d="M1395 1316 c-16 -15 -24 -30 -19 -37 4 -7 3 -9 -3 -6 -13 8 -34 -40 -32 -68 1 -11 1 -36 1 -56 l-2 -36 -87 19 c-49 11 -105 17 -126 15 -35 -5 -106 10 -117 24 -8 10 -132 49 -156 49 -31 0 -48 -24 -40 -57 4 -16 6 -35 6 -43 -3 -51 0 -62 21 -88 13 -16 31 -39 39 -51 8 -11 29 -26 47 -32 18 -6 33 -15 33 -20 0 -5 12 -12 27 -15 24 -6 25 -8 8 -20 -16 -12 -16 -17 -5 -44 9 -21 19 -30 36 -30 12 0 26 -5 29 -11 4 -6 14 -8 22 -5 8 3 11 1 8 -4 -4 -6 16 -10 49 -11 76 -2 71 0 104 -34 16 -16 56 -43 88 -60 55 -28 66 -30 167 -29 77 1 111 5 117 14 4 7 12 10 18 6 6 -3 18 1 26 10 9 8 16 13 16 9 0 -3 9 -1 20 5 11 6 18 15 15 20 -3 5 0 12 6 16 8 4 9 3 5 -4 -14 -23 11 -11 39 18 23 24 37 30 71 30 56 0 105 10 98 21 -3 5 2 6 10 3 18 -7 59 14 51 26 -3 4 0 10 5 12 8 2 8 12 2 28 -10 27 5 42 75 76 17 9 39 31 48 50 9 19 20 34 26 34 15 0 31 51 20 64 -6 7 -6 17 -1 26 14 21 12 64 -2 78 -21 21 -55 15 -163 -28 -51 -20 -113 -34 -142 -31 -31 2 -130 -13 -163 -26 -8 -3 -24 -6 -36 -7 -19 -1 -21 3 -20 61 1 35 -2 63 -6 63 -5 0 -8 3 -7 8 2 14 -13 52 -20 48 -3 -2 -12 2 -19 10 -7 8 -9 14 -5 15 26 3 -51 17 -99 18 -47 1 -61 -3 -83 -23z m163 -23 c20 -5 23 -11 18 -33 -4 -22 -1 -27 12 -26 9 0 17 -6 17 -14 0 -8 -8 -14 -17 -14 -11 1 -18 -5 -18 -17 0 -10 7 -19 15 -19 8 0 15 -7 15 -15 0 -8 -7 -15 -15 -15 -8 0 -15 -9 -15 -20 0 -13 5 -18 15 -14 11 4 15 0 15 -16 0 -14 -5 -20 -13 -17 -9 3 -18 -7 -25 -26 -11 -31 -14 -32 -71 -33 -53 0 -61 2 -70 24 -6 13 -8 28 -5 34 4 6 -1 8 -15 3 -17 -5 -21 -2 -21 14 0 12 7 21 15 21 8 0 15 7 15 17 0 9 -3 13 -7 10 -3 -4 -12 -2 -20 4 -10 9 -10 15 -2 25 6 8 15 11 20 8 5 -3 9 4 9 14 0 13 -6 19 -17 18 -10 0 -18 6 -18 14 0 8 8 14 17 14 14 -1 16 4 12 22 -5 19 -1 26 17 33 28 11 103 14 137 4z m-684 -111 c17 -13 95 -39 159 -53 31 -7 57 -16 57 -21 0 -4 -5 -8 -11 -8 -5 0 -7 -5 -3 -11 4 -7 0 -9 -12 -6 -11 3 -48 9 -84 12 -81 9 -112 24 -138 69 l-20 35 20 -4 c11 -2 25 -8 32 -13z m1276 13 c0 -4 -7 -19 -15 -35 -20 -39 -58 -57 -136 -65 -35 -3 -75 -8 -87 -11 -14 -3 -21 -1 -18 5 3 5 0 11 -6 14 -16 6 -7 10 97 37 44 12 96 30 115 40 38 19 50 23 50 15z m-917 -95 c59 -11 117 -24 128 -31 19 -10 20 -11 3 -23 -26 -19 -11 -65 27 -79 16 -6 28 -16 26 -22 -6 -15 -39 -6 -65 18 -19 18 -23 29 -19 60 3 20 2 37 -1 38 -4 0 -34 2 -68 3 -69 4 -127 20 -144 42 -15 18 -17 18 113 -6z m637 11 c0 -17 -85 -43 -150 -46 -36 -2 -68 -4 -72 -4 -3 -1 -4 -18 -1 -38 4 -31 0 -42 -19 -60 -27 -25 -59 -33 -65 -17 -2 7 8 15 22 18 34 9 54 50 36 78 -15 24 -5 34 44 43 17 3 62 12 100 19 88 17 105 18 105 7z m-992 -23 c7 -7 52 -14 110 -16 98 -4 152 -21 77 -24 -39 -1 -39 -1 10 -8 37 -6 20 -7 -62 -6 -96 1 -116 4 -139 22 -15 11 -30 26 -32 32 -5 16 21 15 36 0z m1260 0 c-2 -6 -17 -21 -32 -32 -23 -18 -43 -21 -139 -22 -82 -1 -99 0 -62 6 47 6 48 7 12 8 -73 3 -26 22 56 23 45 0 98 7 117 14 45 17 53 18 48 3z m-278 -27 c0 -14 -56 -29 -123 -34 -90 -6 -64 16 34 29 46 6 85 12 87 12 1 1 2 -2 2 -7z m-572 -14 c6 0 12 -5 12 -12 0 -15 -115 -7 -155 11 -27 13 -23 13 50 8 44 -4 86 -7 93 -7z m-168 -36 c17 -1 21 -4 13 -12 -6 -6 -56 -11 -116 -12 -83 -2 -109 1 -121 13 -14 13 -3 15 92 13 59 0 118 -2 132 -2z m980 -1 c0 -4 -16 -12 -35 -19 -25 -9 -63 -10 -130 -5 -92 6 -125 19 -67 26 46 5 232 3 232 -2z m-825 -10 c-7 -12 -49 -12 -85 0 -19 6 -11 8 33 9 36 1 56 -3 52 -9z m492 -2 c-35 -8 -52 -7 -60 1 -8 8 5 11 49 10 l59 -1 -48 -10z m-227 -58 l0 -60 213 0 c213 0 253 -5 218 -27 -11 -7 -23 -8 -32 -2 -8 5 -105 9 -216 9 -129 0 -203 4 -203 10 0 6 -15 9 -32 9 -28 -2 -29 -2 -8 -6 14 -3 29 -11 33 -19 7 -12 43 -14 204 -14 107 1 197 -1 201 -4 3 -3 -26 -6 -65 -6 -68 0 -73 -2 -119 -41 -27 -22 -71 -52 -99 -67 -44 -24 -61 -27 -145 -27 -84 0 -101 3 -145 27 -27 15 -72 45 -99 68 -47 39 -53 41 -110 40 -79 -2 -91 -1 -84 6 4 3 96 5 206 4 128 0 203 3 207 10 4 7 -64 10 -209 10 -142 0 -216 -4 -216 -10 0 -7 -6 -7 -20 0 -47 25 -14 30 200 30 l220 0 1 33 c1 17 0 44 -1 60 -1 26 0 27 49 27 l51 0 0 -60z m-365 40 c3 -5 -3 -10 -14 -10 -12 0 -21 -4 -21 -9 0 -14 -145 -25 -166 -12 -16 9 -14 11 16 11 19 1 64 7 100 14 36 8 68 14 72 15 4 0 10 -3 13 -9z m590 -11 c5 -5 -8 -9 -32 -9 -26 0 -43 5 -46 14 -5 12 2 13 31 9 20 -3 41 -10 47 -14z m180 -4 c55 -8 74 -15 62 -20 -24 -10 -147 1 -161 15 -5 5 -18 10 -29 10 -10 0 -15 5 -11 11 3 6 17 8 33 4 14 -4 62 -13 106 -20z m-650 5 c-3 -5 -24 -10 -46 -10 -24 0 -38 4 -34 10 3 6 24 10 46 10 24 0 38 -4 34 -10z m-82 -31 c-6 -6 -39 -12 -74 -14 l-64 -4 50 13 c64 18 103 20 88 5z m117 1 c0 -6 -13 -13 -30 -16 -16 -4 -30 -10 -30 -14 0 -15 -61 -23 -73 -10 -7 6 -7 11 -2 9 19 -4 75 14 86 27 13 16 49 19 49 4z m525 -6 l50 -13 -64 4 c-35 2 -68 8 -74 14 -15 15 24 13 88 -5z m-71 -34 c16 -16 -35 -12 -64 6 -25 15 -25 15 14 10 22 -3 44 -10 50 -16z"/> <path d="M1517 1225 c-8 -18 11 -31 25 -17 11 11 3 32 -12 32 -4 0 -10 -7 -13 -15z"/> <path d="M1430 1160 c0 -6 7 -13 15 -16 20 -8 19 -24 -2 -40 -14 -10 -15 -15 -6 -24 19 -20 33 -1 33 46 0 37 -3 44 -20 44 -11 0 -20 -5 -20 -10z"/> <path d="M1510 1126 c0 -47 14 -66 33 -46 9 9 8 14 -5 24 -22 16 -23 36 -3 36 8 0 15 7 15 15 0 8 -9 15 -20 15 -17 0 -20 -7 -20 -44z"/> <path d="M1265 820 c-6 -10 42 -48 95 -76 27 -15 56 -19 130 -19 86 0 100 3 147 29 56 31 106 76 80 72 -8 -1 -23 -8 -33 -16 -11 -9 -15 -10 -10 -2 11 18 2 15 -57 -15 -43 -23 -65 -28 -127 -28 -63 0 -85 5 -135 30 -67 33 -83 37 -90 25z"/> <path d="M1350 821 c0 -5 24 -17 53 -27 28 -9 58 -19 66 -22 10 -4 9 2 -3 27 -15 28 -21 31 -66 31 -28 0 -50 -4 -50 -9z"/> <path d="M1513 799 c-9 -24 -9 -30 0 -26 7 2 36 12 65 21 28 10 52 22 52 27 0 5 -24 9 -53 9 -50 0 -53 -2 -64 -31z"/> </g> </svg> 